<svg xmlns="http://www.w3.org/2000/svg" viewBox="0 0 13.75 20"><defs><style>.cls-1,.cls-3{fill:none;}.cls-1{stroke:#000;}.cls-1,.cls-2,.cls-3{stroke-miterlimit:10;}.cls-2{fill:#fff;}.cls-2,.cls-3{stroke:#fff;}</style></defs><title>lock_icon</title><g id="Layer_2" data-name="Layer 2"><g id="Layer_1-2" data-name="Layer 1"><g id="Padlock"><path d="M11.88,8.75V5a5,5,0,0,0-10,0V8.75A1.88,1.88,0,0,0,0,10.62v7.5A1.88,1.88,0,0,0,1.88,20h10a1.88,1.88,0,0,0,1.88-1.88v-7.5A1.88,1.88,0,0,0,11.88,8.75ZM3.13,5a3.75,3.75,0,1,1,7.5,0V8.75H3.13ZM12.5,18.12a.63.63,0,0,1-.62.63h-10a.63.63,0,0,1-.62-.63v-7.5A.63.63,0,0,1,1.88,10h10a.63.63,0,0,1,.62.63Zm-5-4.2V12.5a.62.62,0,0,0-1.25,0v1.42a1.25,1.25,0,1,0,1.25,0Z"/></g><rect x="1.13" y="9.73" width="11.5" height="9.61"/><line class="cls-1" x1="6.88" y1="14.23" x2="6.88" y2="14.23"/><circle class="cls-2" cx="6.88" cy="13.11" r="1.06"/><line class="cls-3" x1="6.79" y1="13.73" x2="6.79" y2="15.88"/></g></g></svg>