<svg xmlns="http://www.w3.org/2000/svg" viewBox="0 0 82.54 82.54"><defs><style>.cls-1{fill:#b02029;}</style></defs><title>LogoRedWhite</title><g id="Layer_2" data-name="Layer 2"><g id="Layer_1-2" data-name="Layer 1"><path class="cls-1" d="M82.54,82.54H0V0H82.54Zm-59-42.11c0,3.46,0,6.94,0,10.42a1.8,1.8,0,0,0,.57,1.22,37.65,37.65,0,0,0,4.93,3.75C34,58.63,39.4,58.88,44.92,58.19c12.68-1.6,23.2-12.33,24.42-25A27.69,27.69,0,0,0,54,5.48C43.08.22,32.44,1.1,22.65,8.29a25.88,25.88,0,0,0-11,20.79c-.29,10.11-.06,20.23-.09,30.35,0,.93.33,1.16,1.19,1.14,2.24,0,4.48-.08,6.72,0,1.18,0,1.46-.34,1.46-1.48,0-9.48-.08-19,0-28.43a20.74,20.74,0,0,1,1-6.11c3.92-12,18.8-17.11,29.41-10C57.89,18.89,61,25.12,59.95,32.9c-1,7.48-5.43,12.65-12.43,15.3S34,49.52,28.07,45A42.44,42.44,0,0,1,23.56,40.43ZM50.83,79.07V79c.48,0,1,0,1.44,0a11.29,11.29,0,0,0,1.55-.09c1.58-.27,2.05-.81,2.1-2.39,0-1,0-2,0-3,0-1.63-.65-2.4-2.27-2.49A51.51,51.51,0,0,0,48,71a2.19,2.19,0,0,0-2.36,2.43c0,1.08,0,2.16,0,3.23a2,2,0,0,0,1.82,2.14C48.61,78.94,49.72,79,50.83,79.07Zm17-.21V71.11H65.9v5.52l-.38.08c-1-1.36-2.07-2.7-3.08-4.07-1.31-1.76-2.27-2.07-4.47-1.41v7.54H59.9V73.37l.34-.06c.25.29.52.57.75.88,1,1.31,1.94,2.63,2.95,3.92a1.8,1.8,0,0,0,1,.71A27.62,27.62,0,0,0,67.85,78.85ZM32,75.59c1.1-.84.8-2.25.47-3.46S30.85,71,29.82,71s-2.16,0-3.23,0H23.65v7.78h1.73a3.81,3.81,0,0,0,.1-.76c-.07-1,.37-1.28,1.29-1.22s1.85-.06,2.75.05a1.38,1.38,0,0,1,1,.76c.41,1.41.39,1.44,2.3,1Zm46.9-2.4c-.1-1.61-.46-2.08-2-2.16a39.36,39.36,0,0,0-5,0c-1.77.13-2.13.75-2,2.92.07,1.26.56,1.64,2.23,1.7.48,0,1,0,1.44,0a17.44,17.44,0,0,1,2.63.12c.35.06.61.59.91.9-.34.26-.66.7-1,.73a23.44,23.44,0,0,1-3.12,0,1.17,1.17,0,0,1-.84-.32c-.58-.91-1.36-.57-2.11-.51-.24,1.58,0,2.15,1.4,2.23a63.69,63.69,0,0,0,6.45-.07A1.61,1.61,0,0,0,79,78a2.38,2.38,0,0,0-2-3.74c-1.35-.1-2.72-.08-4.07-.2a1.88,1.88,0,0,1-1-.66c-.07-.07.23-.73.38-.73a12.43,12.43,0,0,1,4.21.11A5.33,5.33,0,0,0,78.9,73.19Zm-35.31.35c0-1.87-.24-2.33-1.5-2.41a55.15,55.15,0,0,0-6.08.06,1.77,1.77,0,0,0-1.22.8,2.34,2.34,0,0,0,2.06,3.67c.48,0,1,0,1.44,0a17.28,17.28,0,0,1,2.63.12c.34.06.61.59.91.91-.34.26-.66.7-1,.73a23.53,23.53,0,0,1-3.11,0,1.2,1.2,0,0,1-.85-.32c-.63-.91-1.4-.64-2.19-.45-.08,1.64.19,2.14,1.69,2.21,2.11.09,4.22,0,6.33-.13a1.5,1.5,0,0,0,1-.7,2.41,2.41,0,0,0-1.94-3.77c-1.39-.1-2.79-.08-4.18-.22-.35,0-.7-.43-.95-.74-.06-.07.3-.69.47-.69a36.76,36.76,0,0,1,4.24.11A10.93,10.93,0,0,1,43.59,73.54ZM4.44,78.73c.2-1.9.2-1.9,2.15-1.9.88,0,1.76,0,2.64,0,1.12,0,1.94-.44,2-1.58.18-2.4.19-3.47-1.23-4a.37.37,0,0,0-.11,0H2.46c0,2,0,4,0,6S2.47,79,4.44,78.73Zm6.88,0c1.78.31,1.78.31,2.74-.85.55-.66,5-.71,5.3,0,.61,1.35,1.61.94,2.77.87-1.32-2.56-2.55-5-3.85-7.42-.33-.62-2.91-.5-3.24.13C13.8,73.84,12.59,76.22,11.32,78.7Z"/><path class="cls-1" d="M50.81,77.24h-.12c-2.77,0-3.23-.5-2.73-3.24a1.67,1.67,0,0,1,1.11-1.08,20.62,20.62,0,0,1,3.45,0,1.24,1.24,0,0,1,1.3,1.39c0,.32,0,.64,0,1,0,1.61-.38,2-1.95,2Z"/><path class="cls-1" d="M27.93,75.09a9.52,9.52,0,0,0-1,0c-.8.08-1.35,0-1.36-1.06s.53-1.24,1.4-1.19a21.21,21.21,0,0,1,2.75.1c.39.07,1,.7.93,1a1.6,1.6,0,0,1-1,1.06,5.75,5.75,0,0,1-1.78,0Z"/><path class="cls-1" d="M6.8,72.87a3.81,3.81,0,0,1,1.42,0c.43.19,1,.63,1,1A1,1,0,0,1,8.16,75.2h-2c-.87,0-1.64.11-1.63-1.24s.81-1.11,1.59-1.12H6.8Z"/><path class="cls-1" d="M16.91,72.91l1.47,3H15.11l1.31-3Z"/></g></g></svg>